<svg width="15" height="25" viewBox="0 0 15 25" fill="none" xmlns="http://www.w3.org/2000/svg">
<g id="logo" clip-path="url(#clip0_5101_704)">
<g id="Group">
<path id="svg 1" d="M13.2943 24.9841H12.7108C12.4833 24.9841 12.265 24.8955 12.1041 24.7378C11.9432 24.5801 11.8528 24.3662 11.8528 24.1432V17.1239H3.10429V24.1432C3.10429 24.3662 3.01388 24.5801 2.85296 24.7378C2.69204 24.8955 2.47379 24.9841 2.24622 24.9841H1.67417C1.4466 24.9841 1.22834 24.8955 1.06742 24.7378C0.906504 24.5801 0.816101 24.3662 0.816101 24.1432V7.97797L3.10429 9.47301V15.2897H11.8518V9.47301L14.1524 7.97797V24.1432C14.1524 24.3662 14.062 24.5801 13.9011 24.7378C13.7402 24.8955 13.5219 24.9841 13.2943 24.9841Z" fill="white"/>
<path id="svg 2" d="M0.0953369 4.19361L7.48427 8.38722L14.8732 4.19361L7.48427 0L0.0953369 4.19361Z" fill="white"/>
</g>
</g>
<defs>
<clipPath id="clip0_5101_704">
<rect width="15" height="25" fill="white"/>
</clipPath>
</defs>
</svg>
