<svg width="24" height="24" viewBox="0 0 24 24" fill="none" xmlns="http://www.w3.org/2000/svg">
<g id="cursor 2">
<path id="Vector" fill-rule="evenodd" clip-rule="evenodd" d="M21.1231 3.27737C21.2303 3.38467 21.3025 3.52196 21.33 3.67113C21.3576 3.82029 21.3393 3.97432 21.2776 4.11287L12.7921 23.2049C12.7328 23.3384 12.6358 23.4517 12.513 23.5309C12.3902 23.61 12.247 23.6516 12.1009 23.6505C11.9548 23.6494 11.8122 23.6056 11.6906 23.5246C11.5691 23.4436 11.4738 23.3288 11.4166 23.1944L8.35507 16.0454L1.20457 12.9824C1.07066 12.9248 0.956434 12.8294 0.875868 12.7079C0.795302 12.5864 0.751886 12.4441 0.750932 12.2983C0.749977 12.1525 0.791524 12.0096 0.870492 11.8871C0.94946 11.7646 1.06243 11.6677 1.19557 11.6084L20.2876 3.12287C20.4259 3.06144 20.5797 3.04332 20.7285 3.0709C20.8774 3.09847 21.0144 3.17045 21.1216 3.27737H21.1231ZM3.37507 12.2804L9.22057 14.7854C9.39734 14.8616 9.53805 15.0028 9.61357 15.1799L12.1186 21.0254L19.1146 5.28437L3.37507 12.2804Z" fill="white"/>
</g>
</svg>
